<svg id="Layer_1" enable-background="new 0 0 512 512" height="512" viewBox="0 0 512 512" width="512" xmlns="http://www.w3.org/2000/svg"><g><path d="m27.773 356.256 16.998 34.914c18.457 31.329 43.675 58.196 73.661 78.582h275.136c30.895-21.003 56.737-48.882 75.329-81.438l16.173-34.273c10.285-27.05 15.932-56.385 15.932-87.043 0-135.311-109.691-245.002-245.002-245.002s-245.002 109.691-245.002 245.002c0 31.495 5.949 61.599 16.775 89.258z" fill="#ffdd40"/><g><path d="m375.276 347.741c6.287 4.883 14.046 7.534 22.038 7.534 7.991 0 15.75-2.652 22.037-7.534 4.638-3.602 9.583-8.502 13.919-14.666-1.249-.364-2.51-.71-3.79-1.03-1.335-.335-2.509-1.138-3.266-2.206-3.492-4.927-4.46-12.543-4.649-18.066-2.45 2.853-5.021 5.24-7.477 7.147-9.852 7.651-23.709 7.641-33.548 0-2.456-1.907-5.027-4.294-7.477-7.147-.195 5.646-1.2 13.48-4.885 18.391-.629.838-1.598 1.523-2.759 1.811-1.37.339-2.72.712-4.06 1.103 4.335 6.162 9.279 11.062 13.917 14.663z" fill="#fcad6d"/></g><path d="m380.539 318.919c-2.456-1.907-5.027-4.294-7.477-7.147-.195 5.646-1.2 13.48-4.885 18.391-.629.838-1.598 1.523-2.759 1.811-1.37.339-2.72.712-4.06 1.103 4.336 6.163 9.28 11.063 13.917 14.664 2.772 2.153 5.831 3.87 9.069 5.12 8.682-7.275 12.179-18.295 13.396-28.224-6.069.093-12.162-1.804-17.201-5.718z" fill="#fcad6d"/><path d="m485.07 354.041c-5.048-4.009-11.582-6.794-20.047-7.486-3.129-.256-4.794-1.47-8.482-3.549-7.683-4.333-15.638-7.788-24.307-10.218-4.234 6.086-9.092 10.906-13.641 14.438-6.071 4.714-13.563 7.275-21.279 7.275s-15.208-2.561-21.279-7.275c-4.55-3.534-9.41-8.355-13.644-14.442-8.632 2.424-16.643 5.901-24.304 10.222-3.688 2.08-5.353 3.294-8.483 3.549-26.608 2.175-34.209 24.979-36.17 41.76h175.464c6.237-10.924 11.649-22.379 16.172-34.274z" fill="#ff4155"/><path d="m375.696 358.017c3.662-1.477 6.747-3.444 9.345-5.756-3.219-1.214-6.26-2.901-9.007-5.035-4.55-3.534-9.41-8.355-13.644-14.442-8.632 2.424-16.643 5.901-24.304 10.222-3.688 2.08-5.353 3.294-8.483 3.549-26.608 2.175-34.209 24.979-36.17 41.76h37.635c.847-30.552 15.823-18.682 44.628-30.298z" fill="#e80054"/><g><path d="m93.056 350.321c6.172 4.792 13.787 7.396 21.632 7.396 7.844 0 15.46-2.603 21.631-7.396 4.591-3.565 9.49-8.424 13.772-14.547-1.069-.305-2.145-.6-3.237-.874-1.335-.334-2.509-1.138-3.266-2.206-3.492-4.927-4.459-12.543-4.649-18.066-2.45 2.853-5.021 5.24-7.477 7.147-9.852 7.651-23.709 7.641-33.548 0-2.457-1.907-5.027-4.294-7.477-7.147-.195 5.646-1.2 13.48-4.885 18.391-.629.838-1.598 1.523-2.759 1.81-1.183.293-2.352.608-3.512.939 4.282 6.126 9.183 10.987 13.775 14.553z" fill="#fcad6d"/></g><path d="m114.127 327.486c-5.74-.117-11.448-2.011-16.214-5.712-2.457-1.907-5.027-4.294-7.477-7.147-.195 5.646-1.2 13.48-4.885 18.391-.629.838-1.598 1.523-2.759 1.811-1.183.293-2.352.608-3.512.939 4.283 6.125 9.184 10.986 13.776 14.552 1.424 1.106 2.927 2.089 4.49 2.957 10.966-8.383 15.209-17.915 16.581-25.791z" fill="#fd995b"/><path d="m182.397 349.41c-3.129-.256-4.794-1.47-8.483-3.549-7.683-4.332-15.638-7.788-24.307-10.218-4.234 6.085-9.092 10.906-13.641 14.438-6.071 4.714-13.563 7.275-21.279 7.275s-15.208-2.561-21.279-7.275c-4.55-3.533-9.41-8.355-13.644-14.442-8.632 2.424-16.642 5.901-24.304 10.222-3.688 2.08-5.353 3.294-8.483 3.549-8.004.654-14.277 3.184-19.205 6.846 4.752 12.142 10.454 23.806 16.998 34.914h173.796c-1.96-16.781-9.561-39.584-36.169-41.76z" fill="#73c3f9"/><path d="m53.758 391.171c.602-25.92 6.122-15.768 36.605-33.153 2.81-1.603 5.299-3.277 7.515-4.997-1.556-.86-3.053-1.838-4.47-2.938-4.55-3.533-9.41-8.355-13.644-14.443-8.632 2.425-16.642 5.902-24.304 10.222-3.688 2.08-5.353 3.294-8.483 3.549-8.004.654-14.277 3.184-19.205 6.845 4.752 12.142 10.454 23.806 16.998 34.915z" fill="#4fabf7"/><g><path d="m219.915 463.247c10.295 7.995 23 12.337 36.085 12.337 13.084 0 25.789-4.342 36.084-12.337 7.566-5.876 15.631-13.865 22.712-23.906-2.148-.632-4.318-1.234-6.523-1.787-2.17-.544-4.077-1.849-5.308-3.585-5.675-8.007-7.247-20.384-7.556-29.36-3.981 4.637-8.159 8.515-12.151 11.615-16.01 12.433-38.531 12.417-54.52 0-3.992-3.1-8.17-6.978-12.151-11.615-.316 9.175-1.949 21.906-7.938 29.888-1.022 1.362-2.596 2.475-4.484 2.943-2.352.582-4.666 1.227-6.961 1.904 7.082 10.039 15.146 18.028 22.711 23.903z" fill="#fcad6d"/></g><path d="m254.075 425.499c-8.984-.387-17.871-3.479-25.335-9.275-3.992-3.1-8.17-6.978-12.151-11.615-.316 9.175-1.949 21.906-7.938 29.888-1.022 1.362-2.596 2.475-4.484 2.943-2.352.582-4.666 1.227-6.961 1.904 7.081 10.039 15.145 18.028 22.71 23.903 3.776 2.932 7.878 5.368 12.202 7.283 12.956-12.895 19.116-29.999 21.957-45.031z" fill="#fd995b"/><path d="m352.251 455.367c-12.485-7.041-25.414-12.656-39.501-16.605-6.88 9.89-14.776 17.723-22.168 23.464-9.866 7.662-22.042 11.823-34.581 11.823-12.54 0-24.715-4.161-34.581-11.823-7.394-5.742-15.292-13.578-22.173-23.47-14.028 3.94-27.046 9.59-39.497 16.611-5.994 3.38-8.7 5.353-13.785 5.768-11.091.907-20.138 4.03-27.532 8.617 39.217 26.661 86.57 42.248 137.567 42.248s98.35-15.587 137.568-42.248c-7.393-4.587-16.44-7.71-27.532-8.617-5.086-.415-7.791-2.388-13.785-5.768z" fill="#3c58a0"/><path d="m221.419 462.226c-7.394-5.742-15.292-13.578-22.173-23.47-14.028 3.94-27.046 9.59-39.497 16.611-5.994 3.38-8.7 5.353-13.785 5.768-11.091.907-20.138 4.03-27.532 8.617 18.753 12.748 39.37 22.957 61.352 30.148 6.074-3.227 17.459-7.026 38.783-19.085 5.737-3.244 10.608-7.16 14.754-11.512-4.221-1.85-8.222-4.22-11.902-7.077z" fill="#2a428c"/><g><path d="m249.754 55.651c0-12.884 10.541-23.425 23.425-23.425h111.531v-8.801c0-12.884-10.542-23.425-23.426-23.425h-121.108c-12.884 0-23.425 10.541-23.425 23.425v96.161c0 12.884 10.541 23.425 23.425 23.425h9.577v-87.36z" fill="#4fabf7"/><path d="m307.017 0h-66.841c-12.884 0-23.425 10.541-23.425 23.425v96.161c0 12.884 10.541 23.425 23.425 23.425h9.577v-87.36c0-12.884 10.541-23.425 23.425-23.425h33.342c.296-.965.497-1.495.497-1.495-16.619-16.619 0-30.731 0-30.731z" fill="#1886ea"/><path d="m392.792 30.731h-121.109c-12.884 0-23.425 10.541-23.425 23.425v96.161c0 12.884 10.541 23.425 23.425 23.425 3.293 0 5.118 3.782 3.104 6.387-2.146 2.776-4.551 5.364-7.221 7.716-4.982 4.388-2.179 13.385 4.138 13.365 16.056-.05 31.104-8.2 41.345-21.475 2.878-3.731 7.259-5.994 11.971-5.994h67.77c12.884 0 23.425-10.541 23.425-23.425v-96.16c.002-12.884-10.539-23.425-23.423-23.425z" fill="#e9efff"/><path d="m271.683 30.731c-12.884 0-23.425 10.541-23.425 23.425v96.161c0 12.884 10.541 23.425 23.425 23.425 3.293 0 5.118 3.782 3.104 6.387-2.146 2.776-4.551 5.364-7.221 7.716-4.982 4.388-2.179 13.385 4.138 13.365 16.056-.05 31.104-8.2 41.345-21.475 2.878-3.731 7.259-5.994 11.971-5.994h30.259c-36.4-21.267-20.405-58.741-20.405-58.741l-4.757-21.459c-38.402-22.514-23.102-62.811-23.102-62.811h-35.332z" fill="#bec8f7"/><ellipse cx="291.716" cy="104.799" fill="#1886ea" rx="11.257" ry="11.257" transform="matrix(.973 -.23 .23 .973 -16.274 69.826)"/><ellipse cx="330.119" cy="104.799" fill="#1886ea" rx="11.257" ry="11.257" transform="matrix(.973 -.23 .23 .973 -15.247 78.649)"/><ellipse cx="368.521" cy="104.799" fill="#4fabf7" rx="11.257" ry="11.257" transform="matrix(.707 -.707 .707 .707 33.834 291.279)"/></g><g><g><path d="m242.822 218.141c-39.58 5.393-43.342 27.834-43.36 36.067-.004 1.727-.96 3.327-2.513 4.082-20.588 10.016-9.488 58.286-9.488 58.286 2.068.138 5.169 1.912 6.783 2.694.395-2.46 1.04-4.881 1.952-7.222.694-1.784 1.562-3.586 2.647-5.288 1.883-2.954 2.74-6.438 2.484-9.922-.74-10.07-1.32-28.976 11.972-34.957 11.261-5.067 25.075-2.133 33.884.796 5.721 1.902 11.918 1.902 17.639 0 8.809-2.929 22.622-5.863 33.884-.796 13.255 5.964 12.71 24.774 11.979 34.871-.254 3.51.58 7.031 2.477 10.008 1.12 1.757 2.009 3.621 2.714 5.46.877 2.287 1.5 4.65 1.886 7.05 2.035-.986 5.879-2.996 8.367-2.645.305-10.555 1.279-21.933 1.279-21.933 11.729-57.447-41.969-82.358-84.586-76.551z" fill="#2a428c"/><path d="m242.822 218.141c-39.58 5.393-43.342 27.834-43.36 36.067-.004 1.727-.96 3.327-2.513 4.082-20.588 10.016-9.488 58.286-9.488 58.286 2.068.138 5.169 1.912 6.783 2.694.395-2.46 1.04-4.881 1.952-7.222.694-1.784 1.562-3.586 2.647-5.288 1.883-2.954 2.74-6.438 2.484-9.922-.74-10.07-1.32-28.976 11.972-34.957 11.261-5.067 25.075-2.133 33.884.796 2.41.801 4.905 1.244 7.412 1.371-.384-.659-.794-1.314-1.253-1.959-16.98-23.866 6.623-41.257 11.178-44.296-7.305-.727-14.653-.612-21.698.348z" fill="#1c2e7a"/></g><path d="m329.64 317.996c-3.083-2.825-9.223-1.393-11.879.337.582 3.622.615 7.328.112 10.987l-3.133 22.819c0 1.839-.058 3.644-.164 5.418 7.64 2.304 11.435-4.554 12.074-9.261.275-2.026.725-4.023 1.349-5.972 2.033-6.348 9.365-17.25 1.641-24.328z" fill="#fcad6d"/><path d="m182.365 317.996c3.083-2.825 9.223-1.393 11.878.337-.582 3.622-.615 7.328-.112 10.987l3.133 22.819c0 1.839.058 3.644.165 5.418-7.64 2.304-11.435-4.554-12.075-9.261-.275-2.026-.725-4.023-1.349-5.972-2.032-6.348-9.364-17.25-1.64-24.328z" fill="#fd995b"/><path d="m316.813 311.283c-.705-1.84-1.594-3.703-2.714-5.46-1.897-2.977-2.732-6.497-2.477-10.008.731-10.097.339-29.844-12.915-35.808-11.261-5.067-25.073-2.133-33.882.796-5.721 1.902-11.921 1.902-17.642 0-8.809-2.929-22.622-5.863-33.882-.796-13.292 5.981-13.649 25.824-12.909 35.894.256 3.484-.601 6.968-2.484 9.922-1.085 1.702-1.953 3.504-2.647 5.288-2.252 5.786-2.909 12.06-2.065 18.204l3.134 22.825c0 32.814 17.516 55.117 32.416 66.687 7.777 6.039 17.375 9.32 27.259 9.32 9.885 0 19.482-3.28 27.259-9.32 14.9-11.57 32.416-33.874 32.416-66.687l3.133-22.819c.833-6.084.2-12.298-2-18.038z" fill="#f9ba8f"/><g><path d="m272.259 418.827c-14.9-11.57-32.416-33.874-32.416-66.687l-3.134-22.825c-.844-6.144-.187-12.418 2.065-18.204.694-1.784 1.562-3.585 2.647-5.288 1.883-2.954 2.74-6.439 2.484-9.922-.669-9.105-.439-26.198 9.436-33.812-2.084-.199-4.152-.618-6.16-1.286-8.809-2.929-22.622-5.863-33.882-.796-13.292 5.981-13.649 25.824-12.909 35.894.256 3.484-.601 6.968-2.484 9.922-1.085 1.702-1.953 3.504-2.647 5.288-2.252 5.786-2.909 12.06-2.065 18.204l3.134 22.825c0 32.814 17.516 55.117 32.416 66.687 7.777 6.039 17.375 9.32 27.259 9.32 7.665 0 15.153-1.981 21.758-5.683-1.914-1.072-3.756-2.281-5.502-3.637z" fill="#fcad6d"/></g></g><g><g><path d="m389.202 197.031c-24.356 3.319-26.671 17.128-26.682 22.194-.002 1.063-.591 2.047-1.546 2.512-12.669 6.163-5.839 35.867-5.839 35.867 1.272.085 3.181 1.177 4.174 1.658.243-1.514.64-3.004 1.201-4.444.427-1.098.961-2.206 1.629-3.254 1.159-1.818 1.686-3.962 1.529-6.106-.455-6.197-.813-17.831 7.367-21.511 6.93-3.118 15.43-1.313 20.851.49 3.52 1.171 7.334 1.171 10.854 0 5.421-1.803 13.921-3.608 20.851-.49 8.156 3.67 7.821 15.245 7.371 21.458-.157 2.16.357 4.326 1.524 6.158.689 1.081 1.236 2.228 1.67 3.36.539 1.408.923 2.862 1.16 4.338 1.252-.607 3.618-1.844 5.149-1.627.187-6.495.787-13.497.787-13.497 7.219-35.35-25.825-50.679-52.05-47.106z" fill="#2a428c"/><path d="m389.202 197.031c-24.356 3.319-26.671 17.128-26.682 22.194-.002 1.063-.591 2.047-1.546 2.512-12.669 6.163-5.839 35.867-5.839 35.867 1.272.085 3.181 1.177 4.174 1.658.243-1.514.64-3.004 1.201-4.444.427-1.098.961-2.207 1.629-3.254 1.159-1.818 1.686-3.962 1.529-6.106-.455-6.197-.813-17.831 7.367-21.511 6.93-3.118 15.43-1.313 20.851.49 1.483.493 3.018.766 4.561.844-.237-.406-.489-.808-.771-1.205-10.449-14.686 4.075-25.388 6.879-27.258-4.496-.449-9.018-.378-13.353.213z" fill="#1c2e7a"/></g><path d="m442.626 258.478c-1.897-1.738-5.676-.857-7.31.207.358 2.229.378 4.509.069 6.761l-1.928 14.042c0 1.132-.036 2.242-.101 3.334 4.701 1.418 7.037-2.803 7.43-5.699.169-1.247.446-2.476.83-3.675 1.252-3.906 5.763-10.615 1.01-14.97z" fill="#fcad6d"/><path d="m351.999 258.478c1.897-1.738 5.676-.857 7.31.207-.358 2.229-.378 4.509-.069 6.761l1.928 14.042c0 1.132.036 2.242.101 3.334-4.701 1.418-7.037-2.803-7.43-5.699-.169-1.247-.446-2.476-.83-3.675-1.251-3.906-5.763-10.615-1.01-14.97z" fill="#fd995b"/><path d="m434.733 254.347c-.434-1.132-.981-2.279-1.67-3.36-1.167-1.832-1.681-3.998-1.524-6.158.45-6.213.209-18.365-7.948-22.035-6.929-3.118-15.429-1.313-20.85.49-3.52 1.171-7.335 1.171-10.856 0-5.421-1.802-13.921-3.608-20.85-.49-8.18 3.68-8.399 15.891-7.944 22.088.158 2.144-.37 4.288-1.529 6.106-.668 1.048-1.202 2.156-1.629 3.254-1.386 3.56-1.79 7.421-1.271 11.202l1.928 14.045c0 20.192 10.779 33.917 19.947 41.037 4.786 3.716 10.692 5.735 16.774 5.735 6.083 0 11.989-2.019 16.774-5.735 9.169-7.12 19.947-20.845 19.947-41.037l1.928-14.042c.517-3.745.127-7.568-1.227-11.1z" fill="#f9ba8f"/><g><path d="m407.316 320.525c-9.169-7.12-19.947-20.845-19.947-41.037l-1.928-14.045c-.519-3.781-.115-7.642 1.271-11.202.427-1.098.961-2.206 1.629-3.254 1.159-1.818 1.686-3.962 1.529-6.106-.412-5.603-.27-16.122 5.807-20.807-1.283-.122-2.555-.381-3.791-.792-5.421-1.803-13.921-3.608-20.85-.49-8.18 3.68-8.399 15.891-7.944 22.088.158 2.144-.37 4.288-1.529 6.106-.668 1.048-1.202 2.156-1.629 3.254-1.386 3.56-1.79 7.421-1.271 11.202l1.928 14.045c0 20.192 10.779 33.917 19.947 41.037 4.786 3.716 10.692 5.735 16.774 5.735 4.717 0 9.325-1.219 13.389-3.497-1.176-.659-2.31-1.403-3.385-2.237z" fill="#fcad6d"/></g></g><g><g><path d="m106.575 199.886c-24.356 3.319-26.671 17.128-26.682 22.194-.002 1.063-.591 2.047-1.546 2.512-12.669 6.163-5.839 35.867-5.839 35.867 1.272.085 3.18 1.177 4.174 1.658.243-1.514.64-3.004 1.201-4.444.427-1.098.961-2.206 1.629-3.254 1.159-1.818 1.686-3.962 1.529-6.106-.455-6.197-.813-17.831 7.367-21.511 6.929-3.118 15.43-1.313 20.851.49 3.52 1.171 7.334 1.171 10.854 0 5.421-1.803 13.921-3.608 20.851-.49 8.156 3.67 7.821 15.245 7.371 21.458-.157 2.16.357 4.327 1.524 6.158.689 1.081 1.236 2.228 1.67 3.36.539 1.408.923 2.862 1.16 4.338 1.252-.607 3.618-1.844 5.149-1.627.188-6.495.787-13.497.787-13.497 7.218-35.35-25.826-50.679-52.05-47.106z" fill="#2a428c"/><path d="m106.575 199.886c-24.356 3.319-26.671 17.128-26.682 22.194-.002 1.063-.591 2.047-1.546 2.512-12.669 6.163-5.839 35.867-5.839 35.867 1.272.085 3.18 1.177 4.174 1.658.243-1.514.64-3.004 1.201-4.444.427-1.098.961-2.206 1.629-3.254 1.159-1.818 1.686-3.962 1.529-6.106-.455-6.197-.813-17.831 7.367-21.511 6.929-3.118 15.43-1.313 20.851.49 1.483.493 3.018.766 4.561.843-.237-.406-.489-.808-.771-1.205-10.449-14.686 4.075-25.388 6.879-27.258-4.497-.447-9.018-.377-13.353.214z" fill="#1c2e7a"/></g><path d="m159.999 261.333c-1.897-1.738-5.676-.857-7.309.207.358 2.229.378 4.509.069 6.761l-1.928 14.042c0 1.132-.036 2.242-.101 3.334 4.701 1.418 7.037-2.802 7.43-5.699.169-1.247.446-2.476.83-3.675 1.25-3.906 5.762-10.614 1.009-14.97z" fill="#fcad6d"/><path d="m69.372 261.333c1.897-1.738 5.676-.857 7.31.207-.358 2.229-.378 4.509-.069 6.761l1.928 14.042c0 1.132.036 2.242.101 3.334-4.701 1.418-7.037-2.802-7.43-5.699-.169-1.247-.446-2.476-.83-3.675-1.252-3.906-5.763-10.614-1.01-14.97z" fill="#fd995b"/><path d="m152.106 257.202c-.434-1.132-.981-2.279-1.67-3.36-1.168-1.832-1.681-3.998-1.525-6.158.45-6.213.209-18.365-7.948-22.035-6.929-3.118-15.429-1.313-20.85.49-3.52 1.171-7.336 1.171-10.856 0-5.421-1.803-13.92-3.608-20.85-.49-8.179 3.68-8.399 15.891-7.944 22.088.158 2.144-.37 4.288-1.529 6.106-.668 1.048-1.202 2.156-1.629 3.254-1.386 3.56-1.79 7.421-1.271 11.202l1.928 14.045c0 20.192 10.779 33.917 19.947 41.037 4.786 3.716 10.692 5.735 16.774 5.735 6.083 0 11.989-2.019 16.774-5.735 9.169-7.12 19.947-20.844 19.947-41.037l1.928-14.042c.517-3.744.127-7.568-1.226-11.1z" fill="#f9ba8f"/><g><path d="m124.689 323.38c-9.169-7.12-19.947-20.844-19.947-41.037l-1.928-14.045c-.519-3.781-.115-7.642 1.271-11.202.427-1.097.961-2.206 1.629-3.254 1.159-1.818 1.686-3.962 1.529-6.106-.412-5.603-.27-16.121 5.807-20.806-1.283-.123-2.555-.381-3.791-.792-5.421-1.802-13.92-3.608-20.85-.49-8.179 3.68-8.399 15.891-7.944 22.088.158 2.144-.37 4.288-1.529 6.106-.668 1.048-1.202 2.156-1.629 3.254-1.386 3.56-1.79 7.421-1.271 11.202l1.928 14.045c0 20.192 10.779 33.917 19.947 41.037 4.786 3.716 10.692 5.735 16.774 5.735 4.717 0 9.325-1.219 13.389-3.497-1.177-.659-2.311-1.403-3.385-2.238z" fill="#fcad6d"/></g></g></g></svg>